<?xml version="1.0" standalone="no"?>
<!DOCTYPE svg PUBLIC "-//W3C//DTD SVG 20010904//EN"
 "http://www.w3.org/TR/2001/REC-SVG-20010904/DTD/svg10.dtd">
<svg version="1.0" xmlns="http://www.w3.org/2000/svg"
 width="500.000000pt" height="500.000000pt" viewBox="0 0 500.000000 500.000000"
 preserveAspectRatio="xMidYMid meet">
<metadata>
Created by potrace 1.14, written by Peter Selinger 2001-2017
</metadata>
<g transform="translate(0.000000,500.000000) scale(0.100000,-0.100000)"
fill="#000000" stroke="none">
<path d="M2377 4273 c-4 -3 -27 -6 -52 -6 -25 0 -45 -4 -45 -9 0 -5 -5 -6 -12
-2 -7 5 -9 2 -5 -9 3 -9 2 -17 -3 -19 -5 -2 -10 -20 -12 -40 -1 -21 -7 -38
-13 -38 -5 0 -4 -4 3 -9 7 -4 12 -12 11 -17 -4 -23 2 -44 12 -41 14 3 21 -50
8 -58 -5 -4 -5 -14 1 -26 6 -10 8 -19 4 -19 -3 0 -1 -6 5 -14 7 -9 8 -17 2
-20 -5 -3 -8 -14 -6 -24 1 -9 -3 -23 -9 -31 -9 -12 -8 -13 3 -6 11 6 13 4 8
-7 -3 -9 0 -21 6 -28 9 -10 9 -11 0 -6 -15 8 -13 -70 1 -93 6 -9 5 -12 -2 -7
-14 8 -12 -34 2 -53 8 -11 8 -13 -1 -8 -15 9 -13 -44 2 -55 6 -5 5 -8 -2 -8
-9 0 -13 -18 -13 -56 0 -37 -4 -53 -11 -48 -7 4 -7 -1 1 -16 6 -12 9 -24 6
-28 -3 -3 -6 1 -6 9 -1 8 -8 -2 -18 -22 -21 -43 -41 -64 -70 -73 -12 -4 -20
-12 -17 -17 4 -5 -1 -9 -9 -9 -9 0 -16 -5 -16 -12 0 -6 -3 -9 -6 -5 -4 3 -22
-5 -42 -18 -19 -13 -39 -22 -44 -19 -4 3 -5 -3 -1 -12 4 -11 2 -15 -4 -11 -5
3 -27 -11 -49 -32 -49 -49 -76 -81 -66 -81 4 0 2 -4 -4 -8 -9 -6 -45 -66 -49
-82 -1 -3 -5 -13 -9 -22 -4 -9 -9 -25 -11 -35 -2 -10 -4 -18 -5 -18 -3 0 -11
-41 -14 -73 -2 -18 -6 -35 -9 -38 -4 -4 -1 -16 5 -27 8 -16 8 -19 -5 -14 -12
4 -13 -1 -7 -29 5 -20 4 -34 -1 -34 -6 0 -5 -9 1 -20 6 -11 7 -20 3 -20 -9 0
-8 -243 1 -266 3 -8 2 -14 -2 -14 -9 0 -7 -114 2 -129 4 -6 3 -11 -1 -11 -5 0
-7 -17 -5 -37 4 -51 2 -104 -4 -115 -3 -4 -1 -8 5 -8 7 0 7 -8 1 -25 -6 -15
-6 -26 0 -30 6 -4 7 -14 2 -23 -9 -21 -8 -104 2 -120 4 -7 4 -12 -1 -12 -12 0
-10 -164 2 -172 6 -5 5 -8 -3 -8 -10 0 -10 -5 -2 -20 6 -11 7 -20 3 -20 -10 0
-9 -103 1 -118 4 -7 3 -12 -3 -12 -10 0 -9 -25 1 -35 3 -4 3 -19 -1 -33 -9
-33 -8 -43 2 -59 5 -7 4 -13 -1 -13 -5 0 -7 -16 -5 -36 3 -27 1 -34 -9 -28 -7
4 -4 -2 6 -14 11 -12 14 -22 8 -22 -11 0 -11 -18 1 -37 5 -8 3 -13 -4 -13 -8
0 -8 -4 1 -15 7 -8 9 -15 4 -15 -5 0 -9 -13 -9 -30 -1 -16 4 -30 9 -30 5 0 1
-7 -10 -16 -10 -8 -13 -12 -5 -8 11 5 13 2 9 -14 -4 -12 -2 -22 3 -22 6 0 5
-8 -1 -20 -8 -15 -8 -20 2 -20 8 0 9 -3 3 -8 -12 -8 -15 -72 -4 -72 4 0 4 -13
-1 -30 -6 -21 -5 -30 3 -30 7 0 6 -4 -3 -10 -13 -9 -13 -10 0 -10 12 0 13 -2
1 -9 -11 -7 -11 -9 0 -14 11 -4 11 -6 1 -6 -10 -1 -10 -6 -2 -21 8 -14 8 -20
0 -20 -7 0 -7 -7 1 -23 6 -12 8 -19 4 -15 -4 4 -16 -3 -27 -15 -11 -12 -16
-15 -12 -7 6 12 5 13 -7 4 -20 -15 -69 -16 -69 -1 0 9 -2 9 -9 -1 -4 -8 -19
-11 -34 -8 -17 3 -27 0 -27 -8 0 -9 42 -12 170 -11 107 0 170 -4 170 -10 0 -5
5 -3 10 5 7 11 10 11 10 2 0 -9 5 -10 18 -3 13 7 23 6 30 -1 7 -7 12 -8 12 -2
0 7 18 8 50 4 31 -4 51 -2 54 4 3 7 5 6 5 -1 1 -8 8 -10 24 -5 26 9 69 8 86
-2 6 -4 11 -2 11 4 0 8 6 8 20 0 15 -8 20 -8 20 1 0 9 3 9 14 0 10 -9 16 -9
21 -1 5 8 10 8 20 0 10 -8 15 -8 20 0 5 8 10 8 20 0 9 -8 15 -8 20 0 3 6 11 7
17 4 13 -9 98 -11 98 -3 0 4 18 3 40 -1 22 -4 40 -4 40 0 0 4 18 4 40 0 27 -5
40 -4 40 4 0 6 5 4 10 -4 6 -9 10 -10 10 -3 0 8 9 9 30 3 21 -6 30 -5 30 3 0
7 4 6 10 -3 6 -9 10 -10 10 -3 0 8 9 9 30 3 17 -5 30 -6 30 -2 0 4 14 7 30 7
17 0 30 -4 30 -10 0 -5 5 -4 11 2 8 8 20 8 35 3 13 -5 24 -6 24 -2 0 4 11 7
25 7 14 0 25 -4 25 -10 0 -5 5 -4 11 2 8 8 20 8 36 2 16 -6 22 -5 18 1 -8 12
-8 12 33 1 23 -7 30 -7 26 1 -5 7 2 9 20 4 18 -4 26 -2 26 6 0 8 3 9 8 3 4 -6
14 -10 22 -10 8 1 23 -3 34 -8 13 -6 16 -6 11 3 -5 8 2 10 24 7 18 -3 31 -1
31 5 0 7 5 7 13 1 10 -7 61 -9 115 -4 17 1 15 18 -3 18 -8 0 -12 -5 -8 -10 3
-5 -4 -6 -18 -2 -13 4 -28 8 -34 9 -5 0 -13 6 -17 11 -5 6 -8 6 -8 -1 0 -15
-110 -15 -110 0 0 6 -4 5 -9 -2 -11 -18 -17 -17 -42 7 -19 18 -21 30 -21 180
1 88 4 166 8 172 4 7 3 10 -2 6 -11 -6 -9 186 2 204 4 7 3 10 -3 6 -6 -4 -14
0 -17 9 -3 9 -2 12 4 9 13 -8 8 58 -5 67 -6 5 -6 8 1 8 6 0 10 14 9 33 -1 17
3 38 9 46 8 11 8 13 0 8 -13 -7 -27 17 -16 27 11 12 11 40 -1 48 -8 5 -8 8 -1
8 6 0 11 18 11 40 0 26 -4 37 -11 33 -8 -5 -8 -3 0 8 15 18 15 90 0 108 -7 10
-7 13 0 8 13 -8 13 211 0 232 -6 9 -5 12 1 8 6 -4 9 19 9 58 0 43 -3 62 -10
58 -6 -4 -5 1 2 10 8 9 11 21 7 27 -3 5 0 10 7 10 10 0 10 2 1 8 -7 4 -11 18
-8 30 2 13 -1 22 -8 22 -8 0 -8 3 -2 8 6 4 10 16 10 27 0 11 4 26 10 34 8 12
7 13 -4 6 -11 -6 -13 -3 -8 15 3 13 1 31 -6 39 -7 9 -8 12 -1 8 14 -8 14 91 0
112 -6 9 -5 12 1 8 6 -4 10 11 9 38 0 25 -5 45 -11 45 -6 0 -7 3 0 8 16 11 17
34 3 43 -7 5 -8 9 -2 9 11 0 12 35 1 46 -4 4 -2 13 4 21 9 9 8 13 0 13 -8 0
-9 5 -1 19 7 14 7 22 0 26 -8 5 -8 11 0 20 8 10 8 15 0 20 -6 4 -9 13 -6 21 3
7 1 16 -4 19 -5 3 -7 12 -4 20 3 8 2 20 -2 27 -9 13 -10 18 -12 51 -1 10 -5
16 -9 14 -5 -3 -9 6 -10 20 0 14 -7 29 -15 34 -11 7 -11 9 1 9 9 0 7 6 -7 19
-12 10 -19 21 -15 25 3 3 -1 6 -10 6 -10 0 -14 5 -11 15 4 8 1 15 -6 15 -6 0
-8 5 -5 10 4 6 1 9 -6 8 -7 -2 -18 7 -24 19 -7 13 -15 20 -18 16 -4 -3 -7 2
-7 12 0 10 -3 15 -6 12 -4 -4 -15 3 -25 15 -11 11 -19 18 -19 13 0 -4 -6 -2
-13 4 -8 6 -18 7 -22 3 -5 -4 -5 -2 -2 5 4 7 -5 17 -23 25 -16 7 -30 16 -30
20 0 5 -3 7 -7 6 -14 -4 -63 34 -57 44 4 6 -2 8 -15 3 -12 -3 -21 -3 -20 2 4
21 -2 44 -10 39 -11 -7 -23 22 -15 35 3 5 -1 12 -9 15 -9 3 -12 14 -9 30 2 13
-1 31 -8 39 -7 8 -8 15 -3 15 5 0 10 7 10 15 0 8 -4 15 -9 15 -5 0 -4 8 1 18
6 11 6 24 0 34 -6 11 -5 19 1 23 8 5 7 11 -1 21 -9 11 -9 14 0 14 8 0 9 5 2
18 -7 13 -6 23 1 30 9 9 9 12 0 12 -9 0 -10 5 -2 19 7 14 7 20 -2 23 -8 3 -8
10 2 27 6 13 8 21 3 18 -5 -4 -10 7 -10 23 0 16 5 27 10 23 5 -3 5 3 -1 13
-11 21 -11 73 1 91 4 7 0 16 -10 22 -12 7 -13 10 -4 11 7 0 11 6 7 15 -3 8 2
19 12 24 9 6 12 11 5 11 -8 0 -9 9 -3 30 5 18 5 30 -1 30 -5 0 -9 5 -9 11 0 5
5 7 11 3 8 -4 8 -1 1 12 -6 11 -10 21 -10 24 1 3 -2 15 -6 27 -6 18 -16 22
-66 25 -33 1 -60 0 -60 -3 0 -4 -16 -3 -35 1 -24 5 -35 4 -35 -4 0 -6 -5 -4
-10 4 -7 11 -10 11 -10 2 0 -9 -5 -10 -17 -4 -9 6 -29 6 -45 2 -19 -6 -28 -5
-28 3 0 8 -3 8 -9 -1 -10 -17 -21 -17 -31 -3 -3 6 -9 8 -13 4z"/>
<path d="M1535 840 c-3 -5 -21 -10 -40 -10 -19 0 -36 -4 -39 -9 -5 -8 34 -8
69 -1 6 1 12 1 15 0 17 -8 80 -4 77 4 -2 6 -21 9 -41 8 -26 -3 -36 0 -32 7 4
6 5 11 2 11 -3 0 -8 -4 -11 -10z"/>
<path d="M1356 831 c-3 -4 -17 -6 -31 -3 -14 2 -25 2 -25 -1 0 -12 51 -13 61
-1 6 8 9 14 6 14 -3 0 -8 -4 -11 -9z"/>
<path d="M1413 823 c0 -8 6 -9 19 -2 10 5 18 11 18 12 0 2 -8 3 -18 3 -10 0
-19 -6 -19 -13z"/>
<path d="M3503 824 c0 -8 7 -10 22 -4 13 5 27 5 34 -1 8 -6 8 -5 1 3 -13 15
-57 17 -57 2z"/>
<path d="M3576 829 c7 -12 51 -16 51 -5 0 6 -13 11 -28 11 -15 0 -25 -3 -23
-6z"/>
<path d="M3668 823 c6 -2 18 -2 25 0 6 3 1 5 -13 5 -14 0 -19 -2 -12 -5z"/>
</g>
</svg>
